<svg width="621" height="197" viewBox="0 0 621 197" fill="none" xmlns="http://www.w3.org/2000/svg">
<path d="M55.315 180V142.6H67.635C71.5584 142.6 74.4917 143.59 76.435 145.57C78.415 147.55 79.405 150.19 79.405 153.49V156.405C79.405 159.705 78.415 162.363 76.435 164.38C74.4917 166.36 71.5584 167.35 67.635 167.35H61.915V180H55.315ZM67.635 148.925H61.915V161.025H67.635C69.2484 161.025 70.4767 160.622 71.32 159.815C72.2 159.008 72.64 157.872 72.64 156.405V153.49C72.64 152.06 72.2 150.942 71.32 150.135C70.4767 149.328 69.2484 148.925 67.635 148.925ZM108.36 164.38V167.68C108.36 171.567 107.297 174.683 105.17 177.03C103.043 179.377 100.037 180.55 96.1499 180.55C92.2633 180.55 89.2566 179.377 87.1299 177.03C85.0033 174.683 83.9399 171.567 83.9399 167.68V164.38C83.9399 160.493 84.9849 157.395 87.0749 155.085C89.2016 152.738 92.2266 151.565 96.1499 151.565C100.073 151.565 103.08 152.738 105.17 155.085C107.297 157.395 108.36 160.493 108.36 164.38ZM101.87 164.38C101.87 162.143 101.375 160.402 100.385 159.155C99.3949 157.872 97.9833 157.23 96.1499 157.23C94.3166 157.23 92.9049 157.872 91.9149 159.155C90.9249 160.402 90.4299 162.143 90.4299 164.38V167.68C90.4299 169.917 90.9249 171.677 91.9149 172.96C92.9049 174.243 94.3166 174.885 96.1499 174.885C97.9833 174.885 99.3949 174.243 100.385 172.96C101.375 171.677 101.87 169.917 101.87 167.68V164.38ZM123.262 175.05C124.619 175.05 125.737 174.83 126.617 174.39C127.497 173.913 127.937 173.217 127.937 172.3C127.937 171.493 127.644 170.87 127.057 170.43C126.507 169.953 125.499 169.532 124.032 169.165L120.897 168.34C118.477 167.717 116.68 166.672 115.507 165.205C114.37 163.738 113.802 161.997 113.802 159.98C113.802 157.597 114.627 155.598 116.277 153.985C117.927 152.372 120.475 151.565 123.922 151.565C125.315 151.565 126.782 151.73 128.322 152.06C129.862 152.39 131.475 152.922 133.162 153.655L131.347 159.045C129.807 158.312 128.414 157.798 127.167 157.505C125.92 157.212 124.82 157.065 123.867 157.065C121.264 157.065 119.962 157.945 119.962 159.705C119.962 160.402 120.182 160.952 120.622 161.355C121.099 161.758 121.96 162.125 123.207 162.455L126.342 163.28C129.019 163.977 130.962 165.04 132.172 166.47C133.419 167.9 134.042 169.697 134.042 171.86C134.042 174.427 133.162 176.517 131.402 178.13C129.679 179.743 126.947 180.55 123.207 180.55C120.017 180.55 116.662 179.817 113.142 178.35L114.847 173.125C116.57 173.822 118.129 174.317 119.522 174.61C120.915 174.903 122.162 175.05 123.262 175.05ZM157.31 179.065C156.357 179.505 155.257 179.853 154.01 180.11C152.763 180.403 151.498 180.55 150.215 180.55C148.088 180.55 146.383 180.11 145.1 179.23C143.817 178.35 142.882 177.122 142.295 175.545C141.745 173.968 141.47 172.172 141.47 170.155V157.615H136.96V152.115H141.47V144.855H147.795V152.115H156.485V157.615H147.795V170.155C147.795 171.842 148.107 173.015 148.73 173.675C149.39 174.298 150.325 174.61 151.535 174.61C152.122 174.61 152.745 174.555 153.405 174.445C154.102 174.298 154.872 174.06 155.715 173.73L157.31 179.065ZM185.55 182.805C185.55 185.775 184.377 188.085 182.03 189.735C179.72 191.422 176.494 192.265 172.35 192.265C170.407 192.265 168.354 192.045 166.19 191.605C164.027 191.165 162.029 190.432 160.195 189.405L162.01 184.4C163.77 185.28 165.512 185.903 167.235 186.27C168.959 186.673 170.645 186.875 172.295 186.875C174.605 186.875 176.365 186.563 177.575 185.94C178.785 185.317 179.39 184.492 179.39 183.465C179.39 181.888 178.455 181.1 176.585 181.1H169.985C168.189 181.1 166.74 180.807 165.64 180.22C164.54 179.633 163.734 178.882 163.22 177.965C162.707 177.012 162.45 176.022 162.45 174.995C162.45 173.932 162.67 172.942 163.11 172.025C163.587 171.072 164.229 170.192 165.035 169.385C163.715 168.578 162.652 167.497 161.845 166.14C161.075 164.783 160.69 163.152 160.69 161.245C160.69 159.082 161.149 157.285 162.065 155.855C162.982 154.425 164.229 153.362 165.805 152.665C167.419 151.932 169.197 151.565 171.14 151.565H172.075C172.809 151.565 173.524 151.62 174.22 151.73C174.917 151.803 175.577 151.932 176.2 152.115H186.155V157.505L180.655 156.625C181.205 157.212 181.627 157.945 181.92 158.825C182.25 159.668 182.415 160.713 182.415 161.96C182.415 163.83 181.939 165.443 180.985 166.8C180.069 168.12 178.822 169.147 177.245 169.88C175.705 170.577 173.982 170.925 172.075 170.925H171.14C170.407 170.925 169.71 170.87 169.05 170.76C168.647 171.2 168.354 171.658 168.17 172.135C167.987 172.575 167.895 172.997 167.895 173.4C167.895 174.683 168.72 175.325 170.37 175.325H177.08C179.61 175.325 181.645 175.985 183.185 177.305C184.762 178.588 185.55 180.422 185.55 182.805ZM172.075 165.755C173.212 165.755 174.202 165.37 175.045 164.6C175.925 163.83 176.365 162.712 176.365 161.245C176.365 159.778 175.925 158.66 175.045 157.89C174.202 157.12 173.212 156.735 172.075 156.735H171.14C169.967 156.735 168.94 157.12 168.06 157.89C167.217 158.66 166.795 159.778 166.795 161.245C166.795 162.712 167.217 163.83 168.06 164.6C168.94 165.37 169.967 165.755 171.14 165.755H172.075ZM207.344 157.89C205.621 157.89 203.971 158.165 202.394 158.715C200.854 159.228 199.369 160.072 197.939 161.245V180H191.614V152.115H197.609V156.405C199.479 154.645 201.147 153.398 202.614 152.665C204.081 151.932 205.657 151.565 207.344 151.565V157.89ZM234.004 180.275C232.134 180.275 230.63 179.89 229.494 179.12C228.394 178.35 227.587 177.397 227.074 176.26C225.497 177.727 223.975 178.808 222.509 179.505C221.042 180.202 219.465 180.55 217.779 180.55C215.322 180.55 213.507 179.762 212.334 178.185C211.197 176.608 210.629 174.61 210.629 172.19C210.629 170.577 210.922 169.165 211.509 167.955C212.132 166.708 213.14 165.737 214.534 165.04C215.927 164.343 217.834 163.995 220.254 163.995C221.207 163.995 222.197 164.068 223.224 164.215C224.25 164.325 225.277 164.472 226.304 164.655V161.41C226.304 159.87 225.882 158.825 225.039 158.275C224.195 157.688 223.059 157.395 221.629 157.395C220.529 157.395 219.319 157.542 217.999 157.835C216.715 158.128 215.322 158.587 213.819 159.21L212.004 153.82C215.707 152.317 219.062 151.565 222.069 151.565C224.782 151.565 226.872 152.023 228.339 152.94C229.842 153.857 230.887 155.067 231.474 156.57C232.06 158.073 232.354 159.687 232.354 161.41V172.135C232.354 172.685 232.5 173.217 232.794 173.73C233.124 174.207 233.747 174.445 234.664 174.445H235.269V180.275H234.004ZM216.734 172.08C216.734 173.07 216.954 173.858 217.394 174.445C217.834 174.995 218.475 175.27 219.319 175.27C220.162 175.27 221.115 175.05 222.179 174.61C223.242 174.17 224.617 173.143 226.304 171.53V169.165C224.397 168.835 222.527 168.67 220.694 168.67C219.264 168.67 218.237 168.963 217.614 169.55C217.027 170.137 216.734 170.98 216.734 172.08ZM257.095 180V176.205C255.408 177.892 253.941 179.047 252.695 179.67C251.485 180.257 250.22 180.55 248.9 180.55C245.893 180.55 243.546 179.413 241.86 177.14C240.21 174.867 239.385 171.677 239.385 167.57V164.6C239.385 160.603 240.393 157.432 242.41 155.085C244.426 152.738 247.341 151.565 251.155 151.565C252.108 151.565 253.043 151.657 253.96 151.84C254.913 152.023 255.848 152.28 256.765 152.61V139.3H263.09V180H257.095ZM245.875 167.57C245.875 170.027 246.278 171.823 247.085 172.96C247.928 174.097 249.101 174.665 250.605 174.665C251.448 174.665 252.346 174.427 253.3 173.95C254.253 173.437 255.408 172.483 256.765 171.09V158.33C254.968 157.597 253.318 157.23 251.815 157.23C249.688 157.23 248.166 157.89 247.25 159.21C246.333 160.53 245.875 162.327 245.875 164.6V167.57ZM288.414 180V176.315C286.728 177.782 285.151 178.863 283.684 179.56C282.218 180.22 280.733 180.55 279.229 180.55C276.736 180.55 274.811 179.707 273.454 178.02C272.098 176.297 271.419 173.895 271.419 170.815V152.115H277.744V170.045C277.744 173.125 278.881 174.665 281.154 174.665C282.071 174.665 283.061 174.445 284.124 174.005C285.224 173.565 286.544 172.722 288.084 171.475V152.115H294.409V180H288.414ZM324.238 180.275C322.368 180.275 320.865 179.89 319.728 179.12C318.628 178.35 317.821 177.397 317.308 176.26C315.731 177.727 314.21 178.808 312.743 179.505C311.276 180.202 309.7 180.55 308.013 180.55C305.556 180.55 303.741 179.762 302.568 178.185C301.431 176.608 300.863 174.61 300.863 172.19C300.863 170.577 301.156 169.165 301.743 167.955C302.366 166.708 303.375 165.737 304.768 165.04C306.161 164.343 308.068 163.995 310.488 163.995C311.441 163.995 312.431 164.068 313.458 164.215C314.485 164.325 315.511 164.472 316.538 164.655V161.41C316.538 159.87 316.116 158.825 315.273 158.275C314.43 157.688 313.293 157.395 311.863 157.395C310.763 157.395 309.553 157.542 308.233 157.835C306.95 158.128 305.556 158.587 304.053 159.21L302.238 153.82C305.941 152.317 309.296 151.565 312.303 151.565C315.016 151.565 317.106 152.023 318.573 152.94C320.076 153.857 321.121 155.067 321.708 156.57C322.295 158.073 322.588 159.687 322.588 161.41V172.135C322.588 172.685 322.735 173.217 323.028 173.73C323.358 174.207 323.981 174.445 324.898 174.445H325.503V180.275H324.238ZM306.968 172.08C306.968 173.07 307.188 173.858 307.628 174.445C308.068 174.995 308.71 175.27 309.553 175.27C310.396 175.27 311.35 175.05 312.413 174.61C313.476 174.17 314.851 173.143 316.538 171.53V169.165C314.631 168.835 312.761 168.67 310.928 168.67C309.498 168.67 308.471 168.963 307.848 169.55C307.261 170.137 306.968 170.98 306.968 172.08ZM347.769 179.065C346.816 179.505 345.716 179.853 344.469 180.11C343.222 180.403 341.957 180.55 340.674 180.55C338.547 180.55 336.842 180.11 335.559 179.23C334.276 178.35 333.341 177.122 332.754 175.545C332.204 173.968 331.929 172.172 331.929 170.155V157.615H327.419V152.115H331.929V144.855H338.254V152.115H346.944V157.615H338.254V170.155C338.254 171.842 338.566 173.015 339.189 173.675C339.849 174.298 340.784 174.61 341.994 174.61C342.581 174.61 343.204 174.555 343.864 174.445C344.561 174.298 345.331 174.06 346.174 173.73L347.769 179.065ZM374.029 178.405C372.123 179.175 370.326 179.725 368.639 180.055C366.953 180.385 365.358 180.55 363.854 180.55C359.711 180.55 356.576 179.377 354.449 177.03C352.323 174.683 351.259 171.567 351.259 167.68V164.38C351.259 161.777 351.736 159.522 352.689 157.615C353.643 155.708 354.999 154.223 356.759 153.16C358.519 152.097 360.591 151.565 362.974 151.565C364.918 151.565 366.733 151.968 368.419 152.775C370.143 153.545 371.536 154.773 372.599 156.46C373.699 158.11 374.249 160.237 374.249 162.84C374.249 163.61 374.194 164.435 374.084 165.315C373.974 166.158 373.791 167.057 373.534 168.01H357.364C357.438 170.283 358.006 171.988 359.069 173.125C360.133 174.262 361.838 174.83 364.184 174.83C365.431 174.83 366.714 174.683 368.034 174.39C369.391 174.097 370.784 173.657 372.214 173.07L374.029 178.405ZM362.974 156.9C361.288 156.9 359.968 157.45 359.014 158.55C358.098 159.613 357.566 161.153 357.419 163.17H367.979C368.016 162.987 368.034 162.822 368.034 162.675C368.034 162.492 368.034 162.327 368.034 162.18C368.034 160.42 367.539 159.1 366.549 158.22C365.559 157.34 364.368 156.9 362.974 156.9ZM398.432 165.205C398.432 167.882 399.018 170.082 400.192 171.805C401.365 173.492 403.29 174.335 405.967 174.335C407.067 174.335 408.203 174.188 409.377 173.895C410.587 173.602 412.072 173.107 413.832 172.41L415.867 178.13C413.887 179.01 412.053 179.633 410.367 180C408.717 180.367 407.122 180.55 405.582 180.55C402.502 180.55 399.917 179.89 397.827 178.57C395.773 177.25 394.233 175.435 393.207 173.125C392.18 170.815 391.667 168.175 391.667 165.205V157.34C391.667 154.37 392.18 151.73 393.207 149.42C394.233 147.11 395.773 145.313 397.827 144.03C399.917 142.71 402.502 142.05 405.582 142.05C407.085 142.05 408.643 142.233 410.257 142.6C411.87 142.93 413.63 143.517 415.537 144.36L413.502 150.19C411.815 149.493 410.403 148.998 409.267 148.705C408.13 148.412 407.03 148.265 405.967 148.265C403.29 148.265 401.365 149.108 400.192 150.795C399.018 152.482 398.432 154.663 398.432 157.34V165.205ZM443.677 164.38V167.68C443.677 171.567 442.614 174.683 440.487 177.03C438.361 179.377 435.354 180.55 431.467 180.55C427.581 180.55 424.574 179.377 422.447 177.03C420.321 174.683 419.257 171.567 419.257 167.68V164.38C419.257 160.493 420.302 157.395 422.392 155.085C424.519 152.738 427.544 151.565 431.467 151.565C435.391 151.565 438.397 152.738 440.487 155.085C442.614 157.395 443.677 160.493 443.677 164.38ZM437.187 164.38C437.187 162.143 436.692 160.402 435.702 159.155C434.712 157.872 433.301 157.23 431.467 157.23C429.634 157.23 428.222 157.872 427.232 159.155C426.242 160.402 425.747 162.143 425.747 164.38V167.68C425.747 169.917 426.242 171.677 427.232 172.96C428.222 174.243 429.634 174.885 431.467 174.885C433.301 174.885 434.712 174.243 435.702 172.96C436.692 171.677 437.187 169.917 437.187 167.68V164.38ZM467.379 180V176.315C465.693 177.782 464.116 178.863 462.649 179.56C461.183 180.22 459.698 180.55 458.194 180.55C455.701 180.55 453.776 179.707 452.419 178.02C451.063 176.297 450.384 173.895 450.384 170.815V152.115H456.709V170.045C456.709 173.125 457.846 174.665 460.119 174.665C461.036 174.665 462.026 174.445 463.089 174.005C464.189 173.565 465.509 172.722 467.049 171.475V152.115H473.374V180H467.379ZM497.813 157.89C496.089 157.89 494.439 158.165 492.863 158.715C491.323 159.228 489.838 160.072 488.408 161.245V180H482.083V152.115H488.078V156.405C489.948 154.645 491.616 153.398 493.083 152.665C494.549 151.932 496.126 151.565 497.813 151.565V157.89ZM511.162 175.05C512.519 175.05 513.637 174.83 514.517 174.39C515.397 173.913 515.837 173.217 515.837 172.3C515.837 171.493 515.544 170.87 514.957 170.43C514.407 169.953 513.399 169.532 511.932 169.165L508.797 168.34C506.377 167.717 504.581 166.672 503.407 165.205C502.271 163.738 501.702 161.997 501.702 159.98C501.702 157.597 502.527 155.598 504.177 153.985C505.827 152.372 508.376 151.565 511.822 151.565C513.216 151.565 514.682 151.73 516.222 152.06C517.762 152.39 519.376 152.922 521.062 153.655L519.247 159.045C517.707 158.312 516.314 157.798 515.067 157.505C513.821 157.212 512.721 157.065 511.767 157.065C509.164 157.065 507.862 157.945 507.862 159.705C507.862 160.402 508.082 160.952 508.522 161.355C508.999 161.758 509.861 162.125 511.107 162.455L514.242 163.28C516.919 163.977 518.862 165.04 520.072 166.47C521.319 167.9 521.942 169.697 521.942 171.86C521.942 174.427 521.062 176.517 519.302 178.13C517.579 179.743 514.847 180.55 511.107 180.55C507.917 180.55 504.562 179.817 501.042 178.35L502.747 173.125C504.471 173.822 506.029 174.317 507.422 174.61C508.816 174.903 510.062 175.05 511.162 175.05ZM549.61 178.405C547.704 179.175 545.907 179.725 544.22 180.055C542.534 180.385 540.939 180.55 539.435 180.55C535.292 180.55 532.157 179.377 530.03 177.03C527.904 174.683 526.84 171.567 526.84 167.68V164.38C526.84 161.777 527.317 159.522 528.27 157.615C529.224 155.708 530.58 154.223 532.34 153.16C534.1 152.097 536.172 151.565 538.555 151.565C540.499 151.565 542.314 151.968 544 152.775C545.724 153.545 547.117 154.773 548.18 156.46C549.28 158.11 549.83 160.237 549.83 162.84C549.83 163.61 549.775 164.435 549.665 165.315C549.555 166.158 549.372 167.057 549.115 168.01H532.945C533.019 170.283 533.587 171.988 534.65 173.125C535.714 174.262 537.419 174.83 539.765 174.83C541.012 174.83 542.295 174.683 543.615 174.39C544.972 174.097 546.365 173.657 547.795 173.07L549.61 178.405ZM538.555 156.9C536.869 156.9 535.549 157.45 534.595 158.55C533.679 159.613 533.147 161.153 533 163.17H543.56C543.597 162.987 543.615 162.822 543.615 162.675C543.615 162.492 543.615 162.327 543.615 162.18C543.615 160.42 543.12 159.1 542.13 158.22C541.14 157.34 539.949 156.9 538.555 156.9ZM564.927 175.05C566.284 175.05 567.402 174.83 568.282 174.39C569.162 173.913 569.602 173.217 569.602 172.3C569.602 171.493 569.309 170.87 568.722 170.43C568.172 169.953 567.164 169.532 565.697 169.165L562.562 168.34C560.142 167.717 558.345 166.672 557.172 165.205C556.035 163.738 555.467 161.997 555.467 159.98C555.467 157.597 556.292 155.598 557.942 153.985C559.592 152.372 562.14 151.565 565.587 151.565C566.98 151.565 568.447 151.73 569.987 152.06C571.527 152.39 573.14 152.922 574.827 153.655L573.012 159.045C571.472 158.312 570.079 157.798 568.832 157.505C567.585 157.212 566.485 157.065 565.532 157.065C562.929 157.065 561.627 157.945 561.627 159.705C561.627 160.402 561.847 160.952 562.287 161.355C562.764 161.758 563.625 162.125 564.872 162.455L568.007 163.28C570.684 163.977 572.627 165.04 573.837 166.47C575.084 167.9 575.707 169.697 575.707 171.86C575.707 174.427 574.827 176.517 573.067 178.13C571.344 179.743 568.612 180.55 564.872 180.55C561.682 180.55 558.327 179.817 554.807 178.35L556.512 173.125C558.235 173.822 559.794 174.317 561.187 174.61C562.58 174.903 563.827 175.05 564.927 175.05Z" fill="white"/>
<path d="M9.32205 16.492L10.386 23.548L14.194 8.96H17.218L20.998 23.436L22.174 16.492L23.63 8.96H27.046L22.762 28H19.318L15.65 13.832L11.954 28H8.51005L4.22605 8.96H7.86605L9.32205 16.492ZM40.0604 27.188C39.0897 27.58 38.175 27.86 37.3164 28.028C36.4577 28.196 35.6457 28.28 34.8804 28.28C32.771 28.28 31.175 27.6827 30.0924 26.488C29.0097 25.2933 28.4684 23.7067 28.4684 21.728V20.048C28.4684 18.7227 28.711 17.5747 29.1964 16.604C29.6817 15.6333 30.3724 14.8773 31.2684 14.336C32.1644 13.7947 33.219 13.524 34.4324 13.524C35.4217 13.524 36.3457 13.7293 37.2044 14.14C38.0817 14.532 38.791 15.1573 39.3324 16.016C39.8924 16.856 40.1724 17.9387 40.1724 19.264C40.1724 19.656 40.1444 20.076 40.0884 20.524C40.0324 20.9533 39.939 21.4107 39.8084 21.896H31.5764C31.6137 23.0533 31.903 23.9213 32.4444 24.5C32.9857 25.0787 33.8537 25.368 35.0484 25.368C35.683 25.368 36.3364 25.2933 37.0084 25.144C37.699 24.9947 38.4084 24.7707 39.1364 24.472L40.0604 27.188ZM34.4324 16.24C33.5737 16.24 32.9017 16.52 32.4164 17.08C31.9497 17.6213 31.679 18.4053 31.6044 19.432H36.9804C36.999 19.3387 37.0084 19.2547 37.0084 19.18C37.0084 19.0867 37.0084 19.0027 37.0084 18.928C37.0084 18.032 36.7564 17.36 36.2524 16.912C35.7484 16.464 35.1417 16.24 34.4324 16.24ZM43.7979 23.996V7.28H47.0179V23.996C47.0179 24.276 47.0833 24.5467 47.2139 24.808C47.3633 25.0507 47.6433 25.172 48.0539 25.172H48.5019V28.14H47.7179C46.6539 28.14 45.8419 27.9347 45.2819 27.524C44.7219 27.1133 44.3299 26.5907 44.1059 25.956C43.9006 25.3213 43.7979 24.668 43.7979 23.996ZM54.0842 20.076V21.728C54.0842 22.9227 54.2989 23.8187 54.7282 24.416C55.1575 25.0133 55.8482 25.312 56.8002 25.312C57.2669 25.312 57.7895 25.256 58.3682 25.144C58.9655 25.0133 59.6095 24.8173 60.3002 24.556L61.2242 27.272C60.3842 27.608 59.5909 27.86 58.8442 28.028C58.0975 28.196 57.3602 28.28 56.6322 28.28C54.7655 28.28 53.3375 27.6827 52.3482 26.488C51.3589 25.2933 50.8642 23.7067 50.8642 21.728V20.076C50.8642 18.0787 51.3589 16.492 52.3482 15.316C53.3375 14.1213 54.7655 13.524 56.6322 13.524C57.3415 13.524 58.0602 13.608 58.7882 13.776C59.5162 13.944 60.2815 14.1867 61.0842 14.504L60.1602 17.276C58.8162 16.7533 57.6962 16.492 56.8002 16.492C55.8482 16.492 55.1575 16.7907 54.7282 17.388C54.2989 17.9667 54.0842 18.8627 54.0842 20.076ZM75.791 20.048V21.728C75.791 23.7067 75.2497 25.2933 74.167 26.488C73.0843 27.6827 71.5537 28.28 69.575 28.28C67.5963 28.28 66.0657 27.6827 64.983 26.488C63.9003 25.2933 63.359 23.7067 63.359 21.728V20.048C63.359 18.0693 63.891 16.492 64.955 15.316C66.0377 14.1213 67.5777 13.524 69.575 13.524C71.5723 13.524 73.103 14.1213 74.167 15.316C75.2497 16.492 75.791 18.0693 75.791 20.048ZM72.487 20.048C72.487 18.9093 72.235 18.0227 71.731 17.388C71.227 16.7347 70.5083 16.408 69.575 16.408C68.6417 16.408 67.923 16.7347 67.419 17.388C66.915 18.0227 66.663 18.9093 66.663 20.048V21.728C66.663 22.8667 66.915 23.7627 67.419 24.416C67.923 25.0693 68.6417 25.396 69.575 25.396C70.5083 25.396 71.227 25.0693 71.731 24.416C72.235 23.7627 72.487 22.8667 72.487 21.728V20.048ZM82.6215 18.172V28H79.4015V13.804H82.4535V15.68C83.3308 14.9147 84.1428 14.364 84.8895 14.028C85.6361 13.692 86.4015 13.524 87.1855 13.524C88.9215 13.524 90.1068 14.2893 90.7415 15.82C91.6748 14.9987 92.5428 14.4107 93.3455 14.056C94.1481 13.7013 94.9601 13.524 95.7815 13.524C97.0881 13.524 98.0868 13.9627 98.7775 14.84C99.4681 15.6987 99.8135 16.912 99.8135 18.48V28H96.5935V18.872C96.5935 17.304 95.9961 16.52 94.8015 16.52C94.3348 16.52 93.8215 16.632 93.2615 16.856C92.7015 17.08 92.0201 17.5187 91.2175 18.172V28H87.9975V18.872C87.9975 17.304 87.4001 16.52 86.2055 16.52C85.7388 16.52 85.2255 16.632 84.6655 16.856C84.1055 17.08 83.4241 17.5187 82.6215 18.172ZM114.846 27.188C113.875 27.58 112.96 27.86 112.102 28.028C111.243 28.196 110.431 28.28 109.666 28.28C107.556 28.28 105.96 27.6827 104.878 26.488C103.795 25.2933 103.254 23.7067 103.254 21.728V20.048C103.254 18.7227 103.496 17.5747 103.982 16.604C104.467 15.6333 105.158 14.8773 106.054 14.336C106.95 13.7947 108.004 13.524 109.218 13.524C110.207 13.524 111.131 13.7293 111.99 14.14C112.867 14.532 113.576 15.1573 114.118 16.016C114.678 16.856 114.958 17.9387 114.958 19.264C114.958 19.656 114.93 20.076 114.874 20.524C114.818 20.9533 114.724 21.4107 114.594 21.896H106.362C106.399 23.0533 106.688 23.9213 107.23 24.5C107.771 25.0787 108.639 25.368 109.834 25.368C110.468 25.368 111.122 25.2933 111.794 25.144C112.484 24.9947 113.194 24.7707 113.922 24.472L114.846 27.188ZM109.218 16.24C108.359 16.24 107.687 16.52 107.202 17.08C106.735 17.6213 106.464 18.4053 106.39 19.432H111.766C111.784 19.3387 111.794 19.2547 111.794 19.18C111.794 19.0867 111.794 19.0027 111.794 18.928C111.794 18.032 111.542 17.36 111.038 16.912C110.534 16.464 109.927 16.24 109.218 16.24ZM132.813 27.524C132.327 27.748 131.767 27.9253 131.133 28.056C130.498 28.2053 129.854 28.28 129.201 28.28C128.118 28.28 127.25 28.056 126.597 27.608C125.943 27.16 125.467 26.5347 125.169 25.732C124.889 24.9293 124.749 24.0147 124.749 22.988V16.604H122.453V13.804H124.749V10.108H127.969V13.804H132.393V16.604H127.969V22.988C127.969 23.8467 128.127 24.444 128.445 24.78C128.781 25.0973 129.257 25.256 129.873 25.256C130.171 25.256 130.489 25.228 130.825 25.172C131.179 25.0973 131.571 24.976 132.001 24.808L132.813 27.524ZM147.021 20.048V21.728C147.021 23.7067 146.48 25.2933 145.397 26.488C144.315 27.6827 142.784 28.28 140.805 28.28C138.827 28.28 137.296 27.6827 136.213 26.488C135.131 25.2933 134.589 23.7067 134.589 21.728V20.048C134.589 18.0693 135.121 16.492 136.185 15.316C137.268 14.1213 138.808 13.524 140.805 13.524C142.803 13.524 144.333 14.1213 145.397 15.316C146.48 16.492 147.021 18.0693 147.021 20.048ZM143.717 20.048C143.717 18.9093 143.465 18.0227 142.961 17.388C142.457 16.7347 141.739 16.408 140.805 16.408C139.872 16.408 139.153 16.7347 138.649 17.388C138.145 18.0227 137.893 18.9093 137.893 20.048V21.728C137.893 22.8667 138.145 23.7627 138.649 24.416C139.153 25.0693 139.872 25.396 140.805 25.396C141.739 25.396 142.457 25.0693 142.961 24.416C143.465 23.7627 143.717 22.8667 143.717 21.728V20.048ZM164.553 28V26.068C163.695 26.9267 162.948 27.5147 162.313 27.832C161.697 28.1307 161.053 28.28 160.381 28.28C158.851 28.28 157.656 27.7013 156.797 26.544C155.957 25.3867 155.537 23.7627 155.537 21.672V20.16C155.537 18.1253 156.051 16.5107 157.077 15.316C158.104 14.1213 159.588 13.524 161.529 13.524C162.015 13.524 162.491 13.5707 162.957 13.664C163.443 13.7573 163.919 13.888 164.385 14.056V7.28H167.605V28H164.553ZM158.841 21.672C158.841 22.9227 159.047 23.8373 159.457 24.416C159.887 24.9947 160.484 25.284 161.249 25.284C161.679 25.284 162.136 25.1627 162.621 24.92C163.107 24.6587 163.695 24.1733 164.385 23.464V16.968C163.471 16.5947 162.631 16.408 161.865 16.408C160.783 16.408 160.008 16.744 159.541 17.416C159.075 18.088 158.841 19.0027 158.841 20.16V21.672ZM182.822 27.188C181.851 27.58 180.937 27.86 180.078 28.028C179.219 28.196 178.407 28.28 177.642 28.28C175.533 28.28 173.937 27.6827 172.854 26.488C171.771 25.2933 171.23 23.7067 171.23 21.728V20.048C171.23 18.7227 171.473 17.5747 171.958 16.604C172.443 15.6333 173.134 14.8773 174.03 14.336C174.926 13.7947 175.981 13.524 177.194 13.524C178.183 13.524 179.107 13.7293 179.966 14.14C180.843 14.532 181.553 15.1573 182.094 16.016C182.654 16.856 182.934 17.9387 182.934 19.264C182.934 19.656 182.906 20.076 182.85 20.524C182.794 20.9533 182.701 21.4107 182.57 21.896H174.338C174.375 23.0533 174.665 23.9213 175.206 24.5C175.747 25.0787 176.615 25.368 177.81 25.368C178.445 25.368 179.098 25.2933 179.77 25.144C180.461 24.9947 181.17 24.7707 181.898 24.472L182.822 27.188ZM177.194 16.24C176.335 16.24 175.663 16.52 175.178 17.08C174.711 17.6213 174.441 18.4053 174.366 19.432H179.742C179.761 19.3387 179.77 19.2547 179.77 19.18C179.77 19.0867 179.77 19.0027 179.77 18.928C179.77 18.032 179.518 17.36 179.014 16.912C178.51 16.464 177.903 16.24 177.194 16.24ZM192.72 28.28C192.253 28.28 191.777 28.2333 191.292 28.14C190.825 28.0467 190.349 27.916 189.864 27.748V33.964H186.644V13.804H189.696V15.736C190.573 14.8587 191.32 14.2707 191.936 13.972C192.552 13.6733 193.196 13.524 193.868 13.524C195.417 13.524 196.612 14.1027 197.452 15.26C198.292 16.4173 198.712 18.0413 198.712 20.132V21.644C198.712 23.6787 198.198 25.2933 197.172 26.488C196.145 27.6827 194.661 28.28 192.72 28.28ZM193 16.52C192.57 16.52 192.113 16.6507 191.628 16.912C191.161 17.1547 190.573 17.6307 189.864 18.34V24.836C190.778 25.2093 191.618 25.396 192.384 25.396C193.466 25.396 194.241 25.06 194.708 24.388C195.174 23.716 195.408 22.8013 195.408 21.644V20.132C195.408 18.8813 195.193 17.9667 194.764 17.388C194.353 16.8093 193.765 16.52 193 16.52ZM213.2 28.14C212.248 28.14 211.483 27.944 210.904 27.552C210.344 27.16 209.934 26.6747 209.672 26.096C208.87 26.8427 208.095 27.3933 207.348 27.748C206.602 28.1027 205.799 28.28 204.94 28.28C203.69 28.28 202.766 27.8787 202.168 27.076C201.59 26.2733 201.3 25.256 201.3 24.024C201.3 23.2027 201.45 22.484 201.748 21.868C202.066 21.2333 202.579 20.7387 203.288 20.384C203.998 20.0293 204.968 19.852 206.2 19.852C206.686 19.852 207.19 19.8893 207.712 19.964C208.235 20.02 208.758 20.0947 209.28 20.188V18.536C209.28 17.752 209.066 17.22 208.636 16.94C208.207 16.6413 207.628 16.492 206.9 16.492C206.34 16.492 205.724 16.5667 205.052 16.716C204.399 16.8653 203.69 17.0987 202.924 17.416L202 14.672C203.886 13.9067 205.594 13.524 207.124 13.524C208.506 13.524 209.57 13.7573 210.316 14.224C211.082 14.6907 211.614 15.3067 211.912 16.072C212.211 16.8373 212.36 17.6587 212.36 18.536V23.996C212.36 24.276 212.435 24.5467 212.584 24.808C212.752 25.0507 213.07 25.172 213.536 25.172H213.844V28.14H213.2ZM204.408 23.968C204.408 24.472 204.52 24.8733 204.744 25.172C204.968 25.452 205.295 25.592 205.724 25.592C206.154 25.592 206.639 25.48 207.18 25.256C207.722 25.032 208.422 24.5093 209.28 23.688V22.484C208.31 22.316 207.358 22.232 206.424 22.232C205.696 22.232 205.174 22.3813 204.856 22.68C204.558 22.9787 204.408 23.408 204.408 23.968ZM224.648 16.744C223.77 16.744 222.93 16.884 222.128 17.164C221.344 17.4253 220.588 17.8547 219.86 18.452V28H216.64V13.804H219.692V15.988C220.644 15.092 221.493 14.4573 222.24 14.084C222.986 13.7107 223.789 13.524 224.648 13.524V16.744ZM236.008 27.524C235.523 27.748 234.963 27.9253 234.328 28.056C233.693 28.2053 233.049 28.28 232.396 28.28C231.313 28.28 230.445 28.056 229.792 27.608C229.139 27.16 228.663 26.5347 228.364 25.732C228.084 24.9293 227.944 24.0147 227.944 22.988V16.604H225.648V13.804H227.944V10.108H231.164V13.804H235.588V16.604H231.164V22.988C231.164 23.8467 231.323 24.444 231.64 24.78C231.976 25.0973 232.452 25.256 233.068 25.256C233.367 25.256 233.684 25.228 234.02 25.172C234.375 25.0973 234.767 24.976 235.196 24.808L236.008 27.524ZM241.817 18.172V28H238.597V13.804H241.649V15.68C242.526 14.9147 243.338 14.364 244.085 14.028C244.831 13.692 245.597 13.524 246.381 13.524C248.117 13.524 249.302 14.2893 249.937 15.82C250.87 14.9987 251.738 14.4107 252.541 14.056C253.343 13.7013 254.155 13.524 254.977 13.524C256.283 13.524 257.282 13.9627 257.973 14.84C258.663 15.6987 259.009 16.912 259.009 18.48V28H255.789V18.872C255.789 17.304 255.191 16.52 253.997 16.52C253.53 16.52 253.017 16.632 252.457 16.856C251.897 17.08 251.215 17.5187 250.413 18.172V28H247.193V18.872C247.193 17.304 246.595 16.52 245.401 16.52C244.934 16.52 244.421 16.632 243.861 16.856C243.301 17.08 242.619 17.5187 241.817 18.172ZM274.041 27.188C273.07 27.58 272.155 27.86 271.297 28.028C270.438 28.196 269.626 28.28 268.861 28.28C266.751 28.28 265.155 27.6827 264.073 26.488C262.99 25.2933 262.449 23.7067 262.449 21.728V20.048C262.449 18.7227 262.691 17.5747 263.177 16.604C263.662 15.6333 264.353 14.8773 265.249 14.336C266.145 13.7947 267.199 13.524 268.413 13.524C269.402 13.524 270.326 13.7293 271.185 14.14C272.062 14.532 272.771 15.1573 273.313 16.016C273.873 16.856 274.153 17.9387 274.153 19.264C274.153 19.656 274.125 20.076 274.069 20.524C274.013 20.9533 273.919 21.4107 273.789 21.896H265.557C265.594 23.0533 265.883 23.9213 266.425 24.5C266.966 25.0787 267.834 25.368 269.029 25.368C269.663 25.368 270.317 25.2933 270.989 25.144C271.679 24.9947 272.389 24.7707 273.117 24.472L274.041 27.188ZM268.413 16.24C267.554 16.24 266.882 16.52 266.397 17.08C265.93 17.6213 265.659 18.4053 265.585 19.432H270.961C270.979 19.3387 270.989 19.2547 270.989 19.18C270.989 19.0867 270.989 19.0027 270.989 18.928C270.989 18.032 270.737 17.36 270.233 16.912C269.729 16.464 269.122 16.24 268.413 16.24ZM284.806 16.52C284.34 16.52 283.808 16.632 283.21 16.856C282.613 17.08 281.904 17.5187 281.082 18.172V28H277.862V13.804H280.914V15.708C281.792 14.9427 282.622 14.392 283.406 14.056C284.19 13.7013 284.984 13.524 285.786 13.524C287.149 13.524 288.185 13.9627 288.894 14.84C289.604 15.6987 289.958 16.912 289.958 18.48V28H286.738V18.872C286.738 17.304 286.094 16.52 284.806 16.52ZM302.754 27.524C302.269 27.748 301.709 27.9253 301.074 28.056C300.439 28.2053 299.795 28.28 299.142 28.28C298.059 28.28 297.191 28.056 296.538 27.608C295.885 27.16 295.409 26.5347 295.11 25.732C294.83 24.9293 294.69 24.0147 294.69 22.988V16.604H292.394V13.804H294.69V10.108H297.91V13.804H302.334V16.604H297.91V22.988C297.91 23.8467 298.069 24.444 298.386 24.78C298.722 25.0973 299.198 25.256 299.814 25.256C300.113 25.256 300.43 25.228 300.766 25.172C301.121 25.0973 301.513 24.976 301.942 24.808L302.754 27.524ZM322.568 20.048V21.728C322.568 23.7067 322.027 25.2933 320.944 26.488C319.862 27.6827 318.331 28.28 316.352 28.28C314.374 28.28 312.843 27.6827 311.76 26.488C310.678 25.2933 310.136 23.7067 310.136 21.728V20.048C310.136 18.0693 310.668 16.492 311.732 15.316C312.815 14.1213 314.355 13.524 316.352 13.524C318.35 13.524 319.88 14.1213 320.944 15.316C322.027 16.492 322.568 18.0693 322.568 20.048ZM319.264 20.048C319.264 18.9093 319.012 18.0227 318.508 17.388C318.004 16.7347 317.286 16.408 316.352 16.408C315.419 16.408 314.7 16.7347 314.196 17.388C313.692 18.0227 313.44 18.9093 313.44 20.048V21.728C313.44 22.8667 313.692 23.7627 314.196 24.416C314.7 25.0693 315.419 25.396 316.352 25.396C317.286 25.396 318.004 25.0693 318.508 24.416C319.012 23.7627 319.264 22.8667 319.264 21.728V20.048ZM334.383 16.604H329.959V28H326.739V16.604H324.443V13.804H326.739V12.32C326.739 10.7707 327.131 9.50133 327.915 8.512C328.699 7.504 329.959 7 331.695 7C332.329 7 332.983 7.06533 333.655 7.196C334.327 7.32667 334.933 7.49467 335.475 7.7L334.691 10.472C333.795 10.1733 332.992 10.024 332.283 10.024C331.536 10.024 330.957 10.192 330.547 10.528C330.155 10.8453 329.959 11.4427 329.959 12.32V13.804H334.383V16.604ZM345.335 20.468C345.335 21.8307 345.634 22.9507 346.231 23.828C346.828 24.6867 347.808 25.116 349.171 25.116C349.731 25.116 350.31 25.0413 350.907 24.892C351.523 24.7427 352.279 24.4907 353.175 24.136L354.211 27.048C353.203 27.496 352.27 27.8133 351.411 28C350.571 28.1867 349.759 28.28 348.975 28.28C347.407 28.28 346.091 27.944 345.027 27.272C343.982 26.6 343.198 25.676 342.675 24.5C342.152 23.324 341.891 21.98 341.891 20.468V16.464C341.891 14.952 342.152 13.608 342.675 12.432C343.198 11.256 343.982 10.3413 345.027 9.688C346.091 9.016 347.407 8.68 348.975 8.68C349.74 8.68 350.534 8.77333 351.355 8.96C352.176 9.128 353.072 9.42667 354.043 9.856L353.007 12.824C352.148 12.4693 351.43 12.2173 350.851 12.068C350.272 11.9187 349.712 11.844 349.171 11.844C347.808 11.844 346.828 12.2733 346.231 13.132C345.634 13.9907 345.335 15.1013 345.335 16.464V20.468ZM368.369 20.048V21.728C368.369 23.7067 367.828 25.2933 366.745 26.488C365.662 27.6827 364.132 28.28 362.153 28.28C360.174 28.28 358.644 27.6827 357.561 26.488C356.478 25.2933 355.937 23.7067 355.937 21.728V20.048C355.937 18.0693 356.469 16.492 357.533 15.316C358.616 14.1213 360.156 13.524 362.153 13.524C364.15 13.524 365.681 14.1213 366.745 15.316C367.828 16.492 368.369 18.0693 368.369 20.048ZM365.065 20.048C365.065 18.9093 364.813 18.0227 364.309 17.388C363.805 16.7347 363.086 16.408 362.153 16.408C361.22 16.408 360.501 16.7347 359.997 17.388C359.493 18.0227 359.241 18.9093 359.241 20.048V21.728C359.241 22.8667 359.493 23.7627 359.997 24.416C360.501 25.0693 361.22 25.396 362.153 25.396C363.086 25.396 363.805 25.0693 364.309 24.416C364.813 23.7627 365.065 22.8667 365.065 21.728V20.048ZM375.2 18.172V28H371.98V13.804H375.032V15.68C375.909 14.9147 376.721 14.364 377.468 14.028C378.214 13.692 378.98 13.524 379.764 13.524C381.5 13.524 382.685 14.2893 383.32 15.82C384.253 14.9987 385.121 14.4107 385.924 14.056C386.726 13.7013 387.538 13.524 388.36 13.524C389.666 13.524 390.665 13.9627 391.356 14.84C392.046 15.6987 392.392 16.912 392.392 18.48V28H389.172V18.872C389.172 17.304 388.574 16.52 387.38 16.52C386.913 16.52 386.4 16.632 385.84 16.856C385.28 17.08 384.598 17.5187 383.796 18.172V28H380.576V18.872C380.576 17.304 379.978 16.52 378.784 16.52C378.317 16.52 377.804 16.632 377.244 16.856C376.684 17.08 376.002 17.5187 375.2 18.172ZM402.72 28.28C402.253 28.28 401.777 28.2333 401.292 28.14C400.825 28.0467 400.349 27.916 399.864 27.748V33.964H396.644V13.804H399.696V15.736C400.573 14.8587 401.32 14.2707 401.936 13.972C402.552 13.6733 403.196 13.524 403.868 13.524C405.417 13.524 406.612 14.1027 407.452 15.26C408.292 16.4173 408.712 18.0413 408.712 20.132V21.644C408.712 23.6787 408.198 25.2933 407.172 26.488C406.145 27.6827 404.661 28.28 402.72 28.28ZM403 16.52C402.57 16.52 402.113 16.6507 401.628 16.912C401.161 17.1547 400.573 17.6307 399.864 18.34V24.836C400.778 25.2093 401.618 25.396 402.384 25.396C403.466 25.396 404.241 25.06 404.708 24.388C405.174 23.716 405.408 22.8013 405.408 21.644V20.132C405.408 18.8813 405.193 17.9667 404.764 17.388C404.353 16.8093 403.765 16.52 403 16.52ZM420.904 28V26.124C420.046 26.8707 419.243 27.4213 418.496 27.776C417.75 28.112 416.994 28.28 416.228 28.28C414.959 28.28 413.979 27.8507 413.288 26.992C412.598 26.1147 412.252 24.892 412.252 23.324V13.804H415.472V22.932C415.472 24.5 416.051 25.284 417.208 25.284C417.675 25.284 418.179 25.172 418.72 24.948C419.28 24.724 419.952 24.2947 420.736 23.66V13.804H423.956V28H420.904ZM436.93 27.524C436.444 27.748 435.884 27.9253 435.25 28.056C434.615 28.2053 433.971 28.28 433.318 28.28C432.235 28.28 431.367 28.056 430.714 27.608C430.06 27.16 429.584 26.5347 429.286 25.732C429.006 24.9293 428.866 24.0147 428.866 22.988V16.604H426.57V13.804H428.866V10.108H432.086V13.804H436.51V16.604H432.086V22.988C432.086 23.8467 432.244 24.444 432.562 24.78C432.898 25.0973 433.374 25.256 433.99 25.256C434.288 25.256 434.606 25.228 434.942 25.172C435.296 25.0973 435.688 24.976 436.118 24.808L436.93 27.524ZM450.299 27.188C449.328 27.58 448.413 27.86 447.555 28.028C446.696 28.196 445.884 28.28 445.119 28.28C443.009 28.28 441.413 27.6827 440.331 26.488C439.248 25.2933 438.707 23.7067 438.707 21.728V20.048C438.707 18.7227 438.949 17.5747 439.435 16.604C439.92 15.6333 440.611 14.8773 441.507 14.336C442.403 13.7947 443.457 13.524 444.671 13.524C445.66 13.524 446.584 13.7293 447.443 14.14C448.32 14.532 449.029 15.1573 449.571 16.016C450.131 16.856 450.411 17.9387 450.411 19.264C450.411 19.656 450.383 20.076 450.327 20.524C450.271 20.9533 450.177 21.4107 450.047 21.896H441.815C441.852 23.0533 442.141 23.9213 442.683 24.5C443.224 25.0787 444.092 25.368 445.287 25.368C445.921 25.368 446.575 25.2933 447.247 25.144C447.937 24.9947 448.647 24.7707 449.375 24.472L450.299 27.188ZM444.671 16.24C443.812 16.24 443.14 16.52 442.655 17.08C442.188 17.6213 441.917 18.4053 441.843 19.432H447.219C447.237 19.3387 447.247 19.2547 447.247 19.18C447.247 19.0867 447.247 19.0027 447.247 18.928C447.247 18.032 446.995 17.36 446.491 16.912C445.987 16.464 445.38 16.24 444.671 16.24ZM462.128 16.744C461.251 16.744 460.411 16.884 459.608 17.164C458.824 17.4253 458.068 17.8547 457.34 18.452V28H454.12V13.804H457.172V15.988C458.124 15.092 458.974 14.4573 459.72 14.084C460.467 13.7107 461.27 13.524 462.128 13.524V16.744ZM482.006 24.78V28H470.974V8.96H481.726V12.18H474.334V16.744H480.886V19.964H474.334V24.78H482.006ZM492.51 16.52C492.043 16.52 491.511 16.632 490.914 16.856C490.316 17.08 489.607 17.5187 488.786 18.172V28H485.566V13.804H488.618V15.708C489.495 14.9427 490.326 14.392 491.11 14.056C491.894 13.7013 492.687 13.524 493.49 13.524C494.852 13.524 495.888 13.9627 496.598 14.84C497.307 15.6987 497.662 16.912 497.662 18.48V28H494.442V18.872C494.442 17.304 493.798 16.52 492.51 16.52ZM513.705 29.428C513.705 30.94 513.108 32.116 511.913 32.956C510.737 33.8147 509.094 34.244 506.985 34.244C505.996 34.244 504.95 34.132 503.849 33.908C502.748 33.684 501.73 33.3107 500.797 32.788L501.721 30.24C502.617 30.688 503.504 31.0053 504.381 31.192C505.258 31.3973 506.117 31.5 506.957 31.5C508.133 31.5 509.029 31.3413 509.645 31.024C510.261 30.7067 510.569 30.2867 510.569 29.764C510.569 28.9613 510.093 28.56 509.141 28.56H505.781C504.866 28.56 504.129 28.4107 503.569 28.112C503.009 27.8133 502.598 27.4307 502.337 26.964C502.076 26.4787 501.945 25.9747 501.945 25.452C501.945 24.9107 502.057 24.4067 502.281 23.94C502.524 23.4547 502.85 23.0067 503.261 22.596C502.589 22.1853 502.048 21.6347 501.637 20.944C501.245 20.2533 501.049 19.4227 501.049 18.452C501.049 17.3507 501.282 16.436 501.749 15.708C502.216 14.98 502.85 14.4387 503.653 14.084C504.474 13.7107 505.38 13.524 506.369 13.524H506.845C507.218 13.524 507.582 13.552 507.937 13.608C508.292 13.6453 508.628 13.7107 508.945 13.804H514.013V16.548L511.213 16.1C511.493 16.3987 511.708 16.772 511.857 17.22C512.025 17.6493 512.109 18.1813 512.109 18.816C512.109 19.768 511.866 20.5893 511.381 21.28C510.914 21.952 510.28 22.4747 509.477 22.848C508.693 23.2027 507.816 23.38 506.845 23.38H506.369C505.996 23.38 505.641 23.352 505.305 23.296C505.1 23.52 504.95 23.7533 504.857 23.996C504.764 24.22 504.717 24.4347 504.717 24.64C504.717 25.2933 505.137 25.62 505.977 25.62H509.393C510.681 25.62 511.717 25.956 512.501 26.628C513.304 27.2813 513.705 28.2147 513.705 29.428ZM506.845 20.748C507.424 20.748 507.928 20.552 508.357 20.16C508.805 19.768 509.029 19.1987 509.029 18.452C509.029 17.7053 508.805 17.136 508.357 16.744C507.928 16.352 507.424 16.156 506.845 16.156H506.369C505.772 16.156 505.249 16.352 504.801 16.744C504.372 17.136 504.157 17.7053 504.157 18.452C504.157 19.1987 504.372 19.768 504.801 20.16C505.249 20.552 505.772 20.748 506.369 20.748H506.845ZM520.096 11.116H516.708V7.784H520.096V11.116ZM520.012 28H516.792V13.804H520.012V28ZM531.392 16.52C530.926 16.52 530.394 16.632 529.796 16.856C529.199 17.08 528.49 17.5187 527.668 18.172V28H524.448V13.804H527.5V15.708C528.378 14.9427 529.208 14.392 529.992 14.056C530.776 13.7013 531.57 13.524 532.372 13.524C533.735 13.524 534.771 13.9627 535.48 14.84C536.19 15.6987 536.544 16.912 536.544 18.48V28H533.324V18.872C533.324 17.304 532.68 16.52 531.392 16.52ZM551.58 27.188C550.609 27.58 549.695 27.86 548.836 28.028C547.977 28.196 547.165 28.28 546.4 28.28C544.291 28.28 542.695 27.6827 541.612 26.488C540.529 25.2933 539.988 23.7067 539.988 21.728V20.048C539.988 18.7227 540.231 17.5747 540.716 16.604C541.201 15.6333 541.892 14.8773 542.788 14.336C543.684 13.7947 544.739 13.524 545.952 13.524C546.941 13.524 547.865 13.7293 548.724 14.14C549.601 14.532 550.311 15.1573 550.852 16.016C551.412 16.856 551.692 17.9387 551.692 19.264C551.692 19.656 551.664 20.076 551.608 20.524C551.552 20.9533 551.459 21.4107 551.328 21.896H543.096C543.133 23.0533 543.423 23.9213 543.964 24.5C544.505 25.0787 545.373 25.368 546.568 25.368C547.203 25.368 547.856 25.2933 548.528 25.144C549.219 24.9947 549.928 24.7707 550.656 24.472L551.58 27.188ZM545.952 16.24C545.093 16.24 544.421 16.52 543.936 17.08C543.469 17.6213 543.199 18.4053 543.124 19.432H548.5C548.519 19.3387 548.528 19.2547 548.528 19.18C548.528 19.0867 548.528 19.0027 548.528 18.928C548.528 18.032 548.276 17.36 547.772 16.912C547.268 16.464 546.661 16.24 545.952 16.24ZM566.181 27.188C565.211 27.58 564.296 27.86 563.437 28.028C562.579 28.196 561.767 28.28 561.001 28.28C558.892 28.28 557.296 27.6827 556.213 26.488C555.131 25.2933 554.589 23.7067 554.589 21.728V20.048C554.589 18.7227 554.832 17.5747 555.317 16.604C555.803 15.6333 556.493 14.8773 557.389 14.336C558.285 13.7947 559.34 13.524 560.553 13.524C561.543 13.524 562.467 13.7293 563.325 14.14C564.203 14.532 564.912 15.1573 565.453 16.016C566.013 16.856 566.293 17.9387 566.293 19.264C566.293 19.656 566.265 20.076 566.209 20.524C566.153 20.9533 566.06 21.4107 565.929 21.896H557.697C557.735 23.0533 558.024 23.9213 558.565 24.5C559.107 25.0787 559.975 25.368 561.169 25.368C561.804 25.368 562.457 25.2933 563.129 25.144C563.82 24.9947 564.529 24.7707 565.257 24.472L566.181 27.188ZM560.553 16.24C559.695 16.24 559.023 16.52 558.537 17.08C558.071 17.6213 557.8 18.4053 557.725 19.432H563.101C563.12 19.3387 563.129 19.2547 563.129 19.18C563.129 19.0867 563.129 19.0027 563.129 18.928C563.129 18.032 562.877 17.36 562.373 16.912C561.869 16.464 561.263 16.24 560.553 16.24ZM578.011 16.744C577.134 16.744 576.294 16.884 575.491 17.164C574.707 17.4253 573.951 17.8547 573.223 18.452V28H570.003V13.804H573.055V15.988C574.007 15.092 574.856 14.4573 575.603 14.084C576.35 13.7107 577.152 13.524 578.011 13.524V16.744ZM584.135 11.116H580.747V7.784H584.135V11.116ZM584.051 28H580.831V13.804H584.051V28ZM595.431 16.52C594.965 16.52 594.433 16.632 593.835 16.856C593.238 17.08 592.529 17.5187 591.707 18.172V28H588.487V13.804H591.539V15.708C592.417 14.9427 593.247 14.392 594.031 14.056C594.815 13.7013 595.609 13.524 596.411 13.524C597.774 13.524 598.81 13.9627 599.519 14.84C600.229 15.6987 600.583 16.912 600.583 18.48V28H597.363V18.872C597.363 17.304 596.719 16.52 595.431 16.52ZM616.627 29.428C616.627 30.94 616.03 32.116 614.835 32.956C613.659 33.8147 612.016 34.244 609.907 34.244C608.918 34.244 607.872 34.132 606.771 33.908C605.67 33.684 604.652 33.3107 603.719 32.788L604.643 30.24C605.539 30.688 606.426 31.0053 607.303 31.192C608.18 31.3973 609.039 31.5 609.879 31.5C611.055 31.5 611.951 31.3413 612.567 31.024C613.183 30.7067 613.491 30.2867 613.491 29.764C613.491 28.9613 613.015 28.56 612.063 28.56H608.703C607.788 28.56 607.051 28.4107 606.491 28.112C605.931 27.8133 605.52 27.4307 605.259 26.964C604.998 26.4787 604.867 25.9747 604.867 25.452C604.867 24.9107 604.979 24.4067 605.203 23.94C605.446 23.4547 605.772 23.0067 606.183 22.596C605.511 22.1853 604.97 21.6347 604.559 20.944C604.167 20.2533 603.971 19.4227 603.971 18.452C603.971 17.3507 604.204 16.436 604.671 15.708C605.138 14.98 605.772 14.4387 606.575 14.084C607.396 13.7107 608.302 13.524 609.291 13.524H609.767C610.14 13.524 610.504 13.552 610.859 13.608C611.214 13.6453 611.55 13.7107 611.867 13.804H616.935V16.548L614.135 16.1C614.415 16.3987 614.63 16.772 614.779 17.22C614.947 17.6493 615.031 18.1813 615.031 18.816C615.031 19.768 614.788 20.5893 614.303 21.28C613.836 21.952 613.202 22.4747 612.399 22.848C611.615 23.2027 610.738 23.38 609.767 23.38H609.291C608.918 23.38 608.563 23.352 608.227 23.296C608.022 23.52 607.872 23.7533 607.779 23.996C607.686 24.22 607.639 24.4347 607.639 24.64C607.639 25.2933 608.059 25.62 608.899 25.62H612.315C613.603 25.62 614.639 25.956 615.423 26.628C616.226 27.2813 616.627 28.2147 616.627 29.428ZM609.767 20.748C610.346 20.748 610.85 20.552 611.279 20.16C611.727 19.768 611.951 19.1987 611.951 18.452C611.951 17.7053 611.727 17.136 611.279 16.744C610.85 16.352 610.346 16.156 609.767 16.156H609.291C608.694 16.156 608.171 16.352 607.723 16.744C607.294 17.136 607.079 17.7053 607.079 18.452C607.079 19.1987 607.294 19.768 607.723 20.16C608.171 20.552 608.694 20.748 609.291 20.748H609.767Z" fill="#E4E4E4"/>
</svg>
